<svg xmlns="http://www.w3.org/2000/svg" width="1920" height="1080" viewBox="0 0 1920 1080">
  <defs>
    <linearGradient id="bgGrad" x1="0%" y1="0%" x2="100%" y2="100%">
      <stop offset="0%" style="stop-color:#0a192f;stop-opacity:1" />
      <stop offset="100%" style="stop-color:#1a2642;stop-opacity:1" />
    </linearGradient>
  </defs>

  <!-- Background -->
  <rect width="1920" height="1080" fill="url(#bgGrad)"/>

  <!-- Chessboard pattern -->
  <g>
    <rect x="0" y="0" width="120" height="120" fill="#0a192f"/>
    <rect x="120" y="0" width="120" height="120" fill="#1a3a6c"/>
    <rect x="240" y="0" width="120" height="120" fill="#0a192f"/>
    <rect x="360" y="0" width="120" height="120" fill="#1a3a6c"/>
    <rect x="480" y="0" width="120" height="120" fill="#0a192f"/>
    <rect x="600" y="0" width="120" height="120" fill="#1a3a6c"/>
    <rect x="720" y="0" width="120" height="120" fill="#0a192f"/>
    <rect x="840" y="0" width="120" height="120" fill="#1a3a6c"/>
    <rect x="960" y="0" width="120" height="120" fill="#0a192f"/>
    <rect x="1080" y="0" width="120" height="120" fill="#1a3a6c"/>
    <rect x="1200" y="0" width="120" height="120" fill="#0a192f"/>
    <rect x="1320" y="0" width="120" height="120" fill="#1a3a6c"/>
    <rect x="1440" y="0" width="120" height="120" fill="#0a192f"/>
    <rect x="1560" y="0" width="120" height="120" fill="#1a3a6c"/>
    <rect x="1680" y="0" width="120" height="120" fill="#0a192f"/>
    <rect x="1800" y="0" width="120" height="120" fill="#1a3a6c"/>

    <rect x="0" y="120" width="120" height="120" fill="#1a3a6c"/>
    <rect x="120" y="120" width="120" height="120" fill="#0a192f"/>
    <rect x="240" y="120" width="120" height="120" fill="#1a3a6c"/>
    <rect x="360" y="120" width="120" height="120" fill="#0a192f"/>
    <rect x="480" y="120" width="120" height="120" fill="#1a3a6c"/>
    <rect x="600" y="120" width="120" height="120" fill="#0a192f"/>
    <rect x="720" y="120" width="120" height="120" fill="#1a3a6c"/>
    <rect x="840" y="120" width="120" height="120" fill="#0a192f"/>
    <rect x="960" y="120" width="120" height="120" fill="#1a3a6c"/>
    <rect x="1080" y="120" width="120" height="120" fill="#0a192f"/>
    <rect x="1200" y="120" width="120" height="120" fill="#1a3a6c"/>
    <rect x="1320" y="120" width="120" height="120" fill="#0a192f"/>
    <rect x="1440" y="120" width="120" height="120" fill="#1a3a6c"/>
    <rect x="1560" y="120" width="120" height="120" fill="#0a192f"/>
    <rect x="1680" y="120" width="120" height="120" fill="#1a3a6c"/>
    <rect x="1800" y="120" width="120" height="120" fill="#0a192f"/>

    <rect x="0" y="240" width="120" height="120" fill="#0a192f"/>
    <rect x="120" y="240" width="120" height="120" fill="#1a3a6c"/>
    <rect x="240" y="240" width="120" height="120" fill="#0a192f"/>
    <rect x="360" y="240" width="120" height="120" fill="#1a3a6c"/>
    <rect x="480" y="240" width="120" height="120" fill="#0a192f"/>
    <rect x="600" y="240" width="120" height="120" fill="#1a3a6c"/>
    <rect x="720" y="240" width="120" height="120" fill="#0a192f"/>
    <rect x="840" y="240" width="120" height="120" fill="#1a3a6c"/>
    <rect x="960" y="240" width="120" height="120" fill="#0a192f"/>
    <rect x="1080" y="240" width="120" height="120" fill="#1a3a6c"/>
    <rect x="1200" y="240" width="120" height="120" fill="#0a192f"/>
    <rect x="1320" y="240" width="120" height="120" fill="#1a3a6c"/>
    <rect x="1440" y="240" width="120" height="120" fill="#0a192f"/>
    <rect x="1560" y="240" width="120" height="120" fill="#1a3a6c"/>
    <rect x="1680" y="240" width="120" height="120" fill="#0a192f"/>
    <rect x="1800" y="240" width="120" height="120" fill="#1a3a6c"/>

    <rect x="0" y="360" width="120" height="120" fill="#1a3a6c"/>
    <rect x="120" y="360" width="120" height="120" fill="#0a192f"/>
    <rect x="240" y="360" width="120" height="120" fill="#1a3a6c"/>
    <rect x="360" y="360" width="120" height="120" fill="#0a192f"/>
    <rect x="480" y="360" width="120" height="120" fill="#1a3a6c"/>
    <rect x="600" y="360" width="120" height="120" fill="#0a192f"/>
    <rect x="720" y="360" width="120" height="120" fill="#1a3a6c"/>
    <rect x="840" y="360" width="120" height="120" fill="#0a192f"/>
    <rect x="960" y="360" width="120" height="120" fill="#1a3a6c"/>
    <rect x="1080" y="360" width="120" height="120" fill="#0a192f"/>
    <rect x="1200" y="360" width="120" height="120" fill="#1a3a6c"/>
    <rect x="1320" y="360" width="120" height="120" fill="#0a192f"/>
    <rect x="1440" y="360" width="120" height="120" fill="#1a3a6c"/>
    <rect x="1560" y="360" width="120" height="120" fill="#0a192f"/>
    <rect x="1680" y="360" width="120" height="120" fill="#1a3a6c"/>
    <rect x="1800" y="360" width="120" height="120" fill="#0a192f"/>

    <rect x="0" y="480" width="120" height="120" fill="#0a192f"/>
    <rect x="120" y="480" width="120" height="120" fill="#1a3a6c"/>
    <rect x="240" y="480" width="120" height="120" fill="#0a192f"/>
    <rect x="360" y="480" width="120" height="120" fill="#1a3a6c"/>
    <rect x="480" y="480" width="120" height="120" fill="#0a192f"/>
    <rect x="600" y="480" width="120" height="120" fill="#1a3a6c"/>
    <rect x="720" y="480" width="120" height="120" fill="#0a192f"/>
    <rect x="840" y="480" width="120" height="120" fill="#1a3a6c"/>
    <rect x="960" y="480" width="120" height="120" fill="#0a192f"/>
    <rect x="1080" y="480" width="120" height="120" fill="#1a3a6c"/>
    <rect x="1200" y="480" width="120" height="120" fill="#0a192f"/>
    <rect x="1320" y="480" width="120" height="120" fill="#1a3a6c"/>
    <rect x="1440" y="480" width="120" height="120" fill="#0a192f"/>
    <rect x="1560" y="480" width="120" height="120" fill="#1a3a6c"/>
    <rect x="1680" y="480" width="120" height="120" fill="#0a192f"/>
    <rect x="1800" y="480" width="120" height="120" fill="#1a3a6c"/>

    <rect x="0" y="600" width="120" height="120" fill="#1a3a6c"/>
    <rect x="120" y="600" width="120" height="120" fill="#0a192f"/>
    <rect x="240" y="600" width="120" height="120" fill="#1a3a6c"/>
    <rect x="360" y="600" width="120" height="120" fill="#0a192f"/>
    <rect x="480" y="600" width="120" height="120" fill="#1a3a6c"/>
    <rect x="600" y="600" width="120" height="120" fill="#0a192f"/>
    <rect x="720" y="600" width="120" height="120" fill="#1a3a6c"/>
    <rect x="840" y="600" width="120" height="120" fill="#0a192f"/>
    <rect x="960" y="600" width="120" height="120" fill="#1a3a6c"/>
    <rect x="1080" y="600" width="120" height="120" fill="#0a192f"/>
    <rect x="1200" y="600" width="120" height="120" fill="#1a3a6c"/>
    <rect x="1320" y="600" width="120" height="120" fill="#0a192f"/>
    <rect x="1440" y="600" width="120" height="120" fill="#1a3a6c"/>
    <rect x="1560" y="600" width="120" height="120" fill="#0a192f"/>
    <rect x="1680" y="600" width="120" height="120" fill="#1a3a6c"/>
    <rect x="1800" y="600" width="120" height="120" fill="#0a192f"/>

    <rect x="0" y="720" width="120" height="120" fill="#0a192f"/>
    <rect x="120" y="720" width="120" height="120" fill="#1a3a6c"/>
    <rect x="240" y="720" width="120" height="120" fill="#0a192f"/>
    <rect x="360" y="720" width="120" height="120" fill="#1a3a6c"/>
    <rect x="480" y="720" width="120" height="120" fill="#0a192f"/>
    <rect x="600" y="720" width="120" height="120" fill="#1a3a6c"/>
    <rect x="720" y="720" width="120" height="120" fill="#0a192f"/>
    <rect x="840" y="720" width="120" height="120" fill="#1a3a6c"/>
    <rect x="960" y="720" width="120" height="120" fill="#0a192f"/>
    <rect x="1080" y="720" width="120" height="120" fill="#1a3a6c"/>
    <rect x="1200" y="720" width="120" height="120" fill="#0a192f"/>
    <rect x="1320" y="720" width="120" height="120" fill="#1a3a6c"/>
    <rect x="1440" y="720" width="120" height="120" fill="#0a192f"/>
    <rect x="1560" y="720" width="120" height="120" fill="#1a3a6c"/>
    <rect x="1680" y="720" width="120" height="120" fill="#0a192f"/>
    <rect x="1800" y="720" width="120" height="120" fill="#1a3a6c"/>

    <rect x="0" y="840" width="120" height="120" fill="#1a3a6c"/>
    <rect x="120" y="840" width="120" height="120" fill="#0a192f"/>
    <rect x="240" y="840" width="120" height="120" fill="#1a3a6c"/>
    <rect x="360" y="840" width="120" height="120" fill="#0a192f"/>
    <rect x="480" y="840" width="120" height="120" fill="#1a3a6c"/>
    <rect x="600" y="840" width="120" height="120" fill="#0a192f"/>
    <rect x="720" y="840" width="120" height="120" fill="#1a3a6c"/>
    <rect x="840" y="840" width="120" height="120" fill="#0a192f"/>
    <rect x="960" y="840" width="120" height="120" fill="#1a3a6c"/>
    <rect x="1080" y="840" width="120" height="120" fill="#0a192f"/>
    <rect x="1200" y="840" width="120" height="120" fill="#1a3a6c"/>
    <rect x="1320" y="840" width="120" height="120" fill="#0a192f"/>
    <rect x="1440" y="840" width="120" height="120" fill="#1a3a6c"/>
    <rect x="1560" y="840" width="120" height="120" fill="#0a192f"/>
    <rect x="1680" y="840" width="120" height="120" fill="#1a3a6c"/>
    <rect x="1800" y="840" width="120" height="120" fill="#0a192f"/>

    <rect x="0" y="960" width="120" height="120" fill="#0a192f"/>
    <rect x="120" y="960" width="120" height="120" fill="#1a3a6c"/>
    <rect x="240" y="960" width="120" height="120" fill="#0a192f"/>
    <rect x="360" y="960" width="120" height="120" fill="#1a3a6c"/>
    <rect x="480" y="960" width="120" height="120" fill="#0a192f"/>
    <rect x="600" y="960" width="120" height="120" fill="#1a3a6c"/>
    <rect x="720" y="960" width="120" height="120" fill="#0a192f"/>
    <rect x="840" y="960" width="120" height="120" fill="#1a3a6c"/>
    <rect x="960" y="960" width="120" height="120" fill="#0a192f"/>
    <rect x="1080" y="960" width="120" height="120" fill="#1a3a6c"/>
    <rect x="1200" y="960" width="120" height="120" fill="#0a192f"/>
    <rect x="1320" y="960" width="120" height="120" fill="#1a3a6c"/>
    <rect x="1440" y="960" width="120" height="120" fill="#0a192f"/>
    <rect x="1560" y="960" width="120" height="120" fill="#1a3a6c"/>
    <rect x="1680" y="960" width="120" height="120" fill="#0a192f"/>
    <rect x="1800" y="960" width="120" height="120" fill="#1a3a6c"/>
  </g>
</svg>
